<svg xmlns="http://www.w3.org/2000/svg" viewBox="0 0 631.407 164.583" >
  <path id="Tracé_355" data-name="Tracé 355" d="M950.565,72.033c0-17.248-22.085-30.663-46.587-30.663-43.484,0-61.051,22.358-59.728,44.853,2.738,46.04,92.535,35.864,92.535,77.752,0,21.263-13.416,38.055-42.617,38.465-6.753,0-14.556,1-28.609-6.525,4.563-3.65,8.35-6.89,8.122-18.023-.182-10.175-6.8-20.077-18.069-20.077-5.886,0-12.183,5.977-12.183,14.51,0,17.02,23,32.944,50.739,32.944,32.578,0,63.469-16.7,63.469-50.055,0-51.561-91.029-42.207-91.029-76.474,0-20.077,14.647-34.769,37.051-34.4,12.365.228,18.525,2.692,23.452,5.247a42.442,42.442,0,0,0-4.334,16.791c0,9.947,5.749,19.666,16.517,19.666,5.977,0,11.271-5.7,11.271-14.008ZM757.419,120.4c23.271-2.1,45.72-14.921,45.72-37.279,0-30.754-27.057-41.7-60.184-41.7H668.763v1.551c11.042,4.654,20.9,3.65,20.442,28.29V176.112c.091,26.191-9.4,23.636-20.442,28.29v1.551H747.7c37.279,0,61.462-11.635,61.462-42.891.046-27.514-28.518-41.75-51.743-42.663Zm-17.065-1.825H712.384v-74.1h27.971c23.726,0,39.924,14.008,39.924,37.507,0,23.545-16.2,36.594-39.924,36.594Zm45.309,43.393c0,25.142-14.92,39.606-41.385,39.606H712.385v-78.8h31.894c26.465,0,41.385,14.008,41.385,39.2Zm-134.6-37.279c0-50.192-39.331-82.862-81.447-82.862-42.07,0-81.447,32.67-81.447,82.862s39.331,81.22,81.447,81.22,81.447-31.028,81.447-81.22Zm-29.841,0c0,45.857-13.734,77.706-51.606,78.208-42.435.547-52.108-32.351-52.108-78.208,0-45.9,14.373-79.851,52.108-79.851,38.738.046,51.606,33.994,51.606,79.851Zm-180.05,81.22,11.863-52.154h-1.916c-11.544,24.594-30.48,49.051-54.936,49.051h-29.75V70.025c0-15.286,5.019-21.719,15.513-26.328V41.416H326.321v1.916c10.495,4.654,17.156,11.362,17.156,26.647V177.207c0,15.286-6.753,22.267-17.247,26.921v1.78Zm9.4-141.4c0-12.776-5.976-20.944-16.471-20.944a16.656,16.656,0,0,0-16.289,16.7,19.4,19.4,0,0,0,7.528,14.921c7.027,4.974,10.175,10.266,10.175,16.335,0,6.753-5.11,13.324-12.091,18.982a39.194,39.194,0,0,1-9.217,4.928v2.19c20.669-4.517,36.365-37.142,36.365-53.112Z" transform="translate(-326.23 -41.37)"/>
</svg>
