<?xml version="1.0" encoding="utf-8"?>
<!-- Generator: Adobe Illustrator 16.0.0, SVG Export Plug-In . SVG Version: 6.00 Build 0)  -->
<!DOCTYPE svg PUBLIC "-//W3C//DTD SVG 1.0//EN" "http://www.w3.org/TR/2001/REC-SVG-20010904/DTD/svg10.dtd">
<svg version="1.0" id="Recherche" xmlns="http://www.w3.org/2000/svg" xmlns:xlink="http://www.w3.org/1999/xlink" x="0px" y="0px"
	 width="19.498px" height="19.496px" viewBox="5.251 5.252 19.498 19.496"
	 style="enable-background:new 5.251 5.252 19.498 19.496;" xml:space="preserve">
<path style="fill:#666666;" d="M24.749,23.238c0,0.406-0.15,0.758-0.453,1.059c-0.299,0.303-0.652,0.451-1.061,0.451
	c-0.406,0-0.756-0.145-1.051-0.441l-4.009-4.01c-0.698,0.479-1.444,0.838-2.233,1.084c-0.791,0.244-1.604,0.367-2.444,0.367
	c-1.134,0-2.204-0.217-3.211-0.652c-1.008-0.432-1.882-1.02-2.624-1.762c-0.741-0.742-1.329-1.615-1.763-2.625
	c-0.433-1.004-0.649-2.076-0.649-3.21s0.217-2.202,0.65-3.212C6.335,9.28,6.923,8.406,7.664,7.664
	c0.742-0.741,1.616-1.329,2.624-1.761c1.008-0.435,2.078-0.651,3.211-0.651c1.134,0,2.204,0.217,3.211,0.651
	c1.008,0.435,1.882,1.021,2.624,1.761c0.742,0.742,1.33,1.616,1.767,2.623c0.434,1.01,0.647,2.078,0.647,3.213
	c0,0.841-0.122,1.657-0.368,2.456c-0.24,0.797-0.604,1.541-1.08,2.224l4.01,4.01C24.603,22.48,24.749,22.83,24.749,23.238z
	 M18.745,13.499c0-0.728-0.139-1.409-0.409-2.046c-0.271-0.635-0.646-1.193-1.123-1.669c-0.476-0.475-1.03-0.851-1.668-1.122
	c-0.638-0.272-1.317-0.409-2.046-0.409c-0.727,0-1.409,0.135-2.046,0.409c-0.638,0.272-1.193,0.647-1.669,1.122
	c-0.475,0.476-0.85,1.032-1.123,1.669c-0.272,0.637-0.409,1.318-0.409,2.046s0.137,1.41,0.409,2.046
	c0.273,0.639,0.648,1.193,1.123,1.67c0.476,0.475,1.031,0.848,1.669,1.123c0.636,0.27,1.317,0.408,2.046,0.408
	s1.41-0.139,2.047-0.408c0.639-0.275,1.191-0.648,1.669-1.123c0.478-0.477,0.853-1.031,1.123-1.67
	C18.606,14.91,18.745,14.227,18.745,13.499z"/>
</svg>
