<?xml version="1.0" encoding="utf-8"?>
<!-- Generator: Adobe Illustrator 16.0.0, SVG Export Plug-In . SVG Version: 6.00 Build 0)  -->
<!DOCTYPE svg PUBLIC "-//W3C//DTD SVG 1.0//EN" "http://www.w3.org/TR/2001/REC-SVG-20010904/DTD/svg10.dtd">
<svg version="1.0" id="picto-abo" xmlns="http://www.w3.org/2000/svg" xmlns:xlink="http://www.w3.org/1999/xlink" x="0px" y="0px"
	 width="30px" height="30px" viewBox="0 0 30 30" style="enable-background:new 0 0 30 30;" xml:space="preserve">
<circle style="fill:#FFD500;" cx="15.0004883" cy="15.0002441" r="14.9001465"/>
<path d="M22.9003906,9.7094727c0.3837891-1.4863281,0.7226563-1.8461914,1.8710938-2.6113281V7.0522461h-5.9306641
	c-2.1943359,0-2.5488281-0.1230469-3.5039063-0.1230469c-2.2441406,0-4.8828125,0.934082-4.8828125,3.0874023
	c0,1.1669922,0.9511719,1.8120117,2.1015625,1.8120117c0.9853516,0,1.6142578-0.3217773,1.9726563-0.7172852h-0.0361328
	c-0.0888672,0.0356445-0.2138672,0.0356445-0.2871094,0.0356445c-0.4306641-0.0180664-0.6455078-0.4296875-0.6455078-1.0229492
	c0-1.184082,1.2255859-2.7470703,2.2841797-2.7470703c1.5419922,0,1.6025391,0.5419922,1.1552734,1.9150391
	c-0.8261719,2.3989258-2.625,7.0527344-5.2568359,10.8427734c-1.4326172,2.0595703-2.9814453,2.1650391-3.2773438,2.1650391
	c-0.0205078,0-0.0498047,0-0.0830078-0.0009766c-1.0742188-0.0800781-1.2910156-0.8349609-1.2910156-1.9951172
	c0-1.3515625,0.6762695-3.3300781,2.0048828-3.3300781c0.2255859,0,0.3613281,0.0234375,0.4716797,0.0908203h0.046875
	c-0.4047852-0.9453125-1.7568359-1.3300781-2.7480469-1.3300781c-2.0053711,0-3.762207,1.3076172-3.762207,3.4472656
	c0,1.8564453,1.1235352,3.0107422,2.6347656,3.4863281c0.7563477,0.2607422,1.8012695,0.3212891,2.7260742,0.2490234
	c1-0.0751953,2.5146484-0.6728516,3.7519531-2.453125c0.4462891-0.6416016,0.8681641-1.3085938,1.265625-1.9853516h1.8642578
	l-0.4189453,1.6816406c-0.3837891,1.4882813-0.7216797,1.8486328-1.8701172,2.6123047v0.046875h7.7939453v-0.046875
	c-0.5175781-0.4931641-0.7666016-0.8310547-0.7666016-1.4169922c0-0.2929688,0.0673828-0.6777344,0.2021484-1.1953125
	L22.9003906,9.7094727z M17.5419922,9.7094727l-2.0527344,8.2045898h-1.6806641
	c1.9052734-3.3676758,3.2089844-6.8701172,3.8349609-8.7231445C17.6162109,9.3466797,17.5800781,9.519043,17.5419922,9.7094727z"/>
</svg>
