<?xml version="1.0" encoding="utf-8"?>
<!-- Generator: Adobe Illustrator 16.0.0, SVG Export Plug-In . SVG Version: 6.00 Build 0)  -->
<!DOCTYPE svg PUBLIC "-//W3C//DTD SVG 1.0//EN" "http://www.w3.org/TR/2001/REC-SVG-20010904/DTD/svg10.dtd">
<svg version="1.0" id="User" xmlns="http://www.w3.org/2000/svg" xmlns:xlink="http://www.w3.org/1999/xlink" x="0px" y="0px"
	 width="21.996px" height="22px" viewBox="4.002 4 21.996 22" style="enable-background:new 4.002 4 21.996 22;"
	 xml:space="preserve">
<path style="fill:#666666;" d="M15,4C8.936,4,4.002,8.935,4.002,15.001C4.002,21.064,8.936,26,15,26
	c6.064,0,10.998-4.936,10.998-10.999C25.998,8.935,21.064,4,15,4z M21.782,22.537c-0.245-0.104-0.496-0.203-0.769-0.311
	c-0.322-0.125-0.673-0.254-1.041-0.389c-0.359-0.131-0.677-0.25-0.941-0.355c-0.27-0.107-0.487-0.203-0.654-0.285
	c-0.441-0.232-0.779-0.551-1.005-0.953c-0.229-0.42-0.341-0.867-0.341-1.346c0-0.313,0.18-0.684,0.539-1.102
	c0.216-0.229,0.406-0.582,0.574-1.063c0.515-0.217,0.771-0.646,0.771-1.289c0-0.479-0.085-0.834-0.251-1.062l0.08-0.682
	c0.027-0.243,0.059-0.497,0.081-0.772l0.011-0.181l-0.011-0.183c-0.015-0.563-0.101-1.063-0.263-1.499
	c-0.162-0.438-0.375-0.794-0.638-1.067c-0.252-0.275-0.538-0.505-0.862-0.683c-0.32-0.181-0.65-0.307-0.984-0.379
	c-0.504-0.107-0.956-0.155-1.355-0.143c-0.402,0.011-0.668,0.053-0.801,0.123c-0.168,0.098-0.313,0.225-0.439,0.388
	c-0.125,0.16-0.213,0.292-0.26,0.387L13.15,9.913L13.13,9.931c-0.229-0.096-0.511-0.063-0.845,0.094
	c-0.338,0.142-0.611,0.411-0.827,0.809c-0.155,0.272-0.251,0.585-0.287,0.932c-0.059,0.383-0.078,0.652-0.053,0.807l0.053,0.361
	l0.09,0.844l0.072,0.611c-0.168,0.202-0.252,0.557-0.252,1.063c0,0.646,0.258,1.072,0.771,1.287
	c0.166,0.472,0.354,0.822,0.559,1.064c0.369,0.405,0.556,0.77,0.556,1.1c0,0.49-0.118,0.938-0.356,1.347
	c-0.229,0.418-0.557,0.733-0.987,0.952c-0.167,0.082-0.389,0.179-0.664,0.287c-0.275,0.104-0.592,0.229-0.951,0.354
	c-0.681,0.257-1.271,0.486-1.791,0.695c-2.065-1.86-3.374-4.55-3.374-7.538C4.843,9.4,9.399,4.841,15,4.841
	c5.602,0,10.157,4.559,10.157,10.16C25.157,17.99,23.85,20.678,21.782,22.537z"/>
</svg>
